<svg width="128" height="128" viewBox="0 0 128 128" fill="none" xmlns="http://www.w3.org/2000/svg">
  <defs>
    <linearGradient id="gradient" x1="0%" y1="0%" x2="100%" y2="100%">
      <stop offset="0%" style="stop-color:#667eea;stop-opacity:1" />
      <stop offset="100%" style="stop-color:#764ba2;stop-opacity:1" />
    </linearGradient>
  </defs>
  
  <!-- Background circle -->
  <circle cx="64" cy="64" r="60" fill="url(#gradient)" stroke="#fff" stroke-width="2"/>
  
  <!-- Brain/Intelligence icon -->
  <path d="M44 48c-4 0-8 4-8 8v4c-4 0-8 4-8 8s4 8 8 8v4c0 4 4 8 8 8h8v-8h8v8h8c4 0 8-4 8-8v-4c4 0 8-4 8-8s-4-8-8-8v-4c0-4-4-8-8-8h-8v8h-8v-8h-8z" fill="white" opacity="0.9"/>
  
  <!-- Signal waves -->
  <circle cx="64" cy="64" r="20" fill="none" stroke="white" stroke-width="2" opacity="0.6"/>
  <circle cx="64" cy="64" r="28" fill="none" stroke="white" stroke-width="1.5" opacity="0.4"/>
  <circle cx="64" cy="64" r="36" fill="none" stroke="white" stroke-width="1" opacity="0.2"/>
  
  <!-- Central dot -->
  <circle cx="64" cy="64" r="4" fill="white"/>
  
  <!-- Strategic points -->
  <circle cx="52" cy="52" r="2" fill="white" opacity="0.8"/>
  <circle cx="76" cy="52" r="2" fill="white" opacity="0.8"/>
  <circle cx="52" cy="76" r="2" fill="white" opacity="0.8"/>
  <circle cx="76" cy="76" r="2" fill="white" opacity="0.8"/>
</svg>